<svg id="Bold" enable-background="new 0 0 32 32" height="512" viewBox="0 0 32 32" width="512" xmlns="http://www.w3.org/2000/svg"><path d="m26 32h-20c-3.314 0-6-2.686-6-6v-20c0-3.314 2.686-6 6-6h20c3.314 0 6 2.686 6 6v20c0 3.314-2.686 6-6 6z" fill="#f5e6fe"/><g fill="#be63f9"><path d="m22 8h-12c-1.1 0-2 .9-2 2v10.667c0 1.1.9 2 2 2h5.387c-.24-.413-.427-.86-.553-1.333h-4.834c-.367 0-.667-.3-.667-.667v-9.333h13.333v4.053c.5.287.953.66 1.333 1.093v-6.48c.001-1.1-.899-2-1.999-2z"/><path d="m20.833 12.333h-9.667c-.273 0-.5.227-.5.5v3c0 .273.227.5.5.5h4.973c.373-.4.807-.74 1.287-1h-5.76v-2h8.667v1.347c.347.02.68.073 1 .153v-2c0-.273-.226-.5-.5-.5z"/><path d="m15.393 17.327c-.187.313-.34.647-.453 1h-3.74c-.273 0-.5-.227-.5-.5s.227-.5.5-.5z"/><path d="m14.667 20c0 .107.007.22.013.327h-3.48c-.273 0-.5-.227-.5-.5s.227-.5.5-.5h3.513c-.033.22-.046.446-.046.673z"/></g><path d="m20 16c-2.206 0-4 1.794-4 4s1.794 4 4 4 4-1.794 4-4-1.794-4-4-4zm1.768 4.825c.26.26.26.682 0 .943-.26.26-.682.26-.943 0l-.825-.825-.825.825c-.26.26-.682.26-.943 0-.26-.26-.26-.682 0-.943l.825-.825-.825-.825c-.26-.26-.26-.682 0-.943.26-.26.682-.26.943 0l.825.825.825-.825c.26-.26.682-.26.943 0 .26.26.26.682 0 .943l-.825.825z" fill="#d9a4fc"/></svg>